<mxfile host="app.diagrams.net" modified="2022-06-09T16:33:23.853Z" agent="5.0 (Macintosh; Intel Mac OS X 10_15_7) AppleWebKit/537.36 (KHTML, like Gecko) Chrome/102.0.5005.61 Safari/537.36" etag="lY_bM68MnKY6fhYOG25E" version="19.0.3" type="github">
  <diagram id="xcGgvWIwNz7LaRRXlmMj" name="Page-1">
    <mxGraphModel dx="1018" dy="659" grid="1" gridSize="10" guides="1" tooltips="1" connect="1" arrows="1" fold="1" page="1" pageScale="1" pageWidth="850" pageHeight="1100" math="0" shadow="0">
      <root>
        <mxCell id="0" />
        <mxCell id="1" parent="0" />
        <mxCell id="nMFlUA6Oz-n80mbXd-9G-1" value="" style="ellipse;whiteSpace=wrap;html=1;aspect=fixed;fillColor=#dae8fc;strokeColor=#6c8ebf;" vertex="1" parent="1">
          <mxGeometry x="200" y="180" width="480" height="480" as="geometry" />
        </mxCell>
        <mxCell id="nMFlUA6Oz-n80mbXd-9G-2" value="" style="ellipse;whiteSpace=wrap;html=1;aspect=fixed;fillColor=#d5e8d4;strokeColor=#82b366;" vertex="1" parent="1">
          <mxGeometry x="347.5" y="327.5" width="185" height="185" as="geometry" />
        </mxCell>
        <mxCell id="nMFlUA6Oz-n80mbXd-9G-3" value="&lt;font style=&quot;font-size: 20px;&quot;&gt;Package&lt;/font&gt;" style="text;html=1;strokeColor=none;fillColor=none;align=center;verticalAlign=middle;whiteSpace=wrap;rounded=0;" vertex="1" parent="1">
          <mxGeometry x="410" y="250" width="60" height="30" as="geometry" />
        </mxCell>
        <mxCell id="nMFlUA6Oz-n80mbXd-9G-4" value="&lt;font style=&quot;font-size: 20px;&quot;&gt;Crates&lt;/font&gt;" style="text;html=1;strokeColor=none;fillColor=none;align=center;verticalAlign=middle;whiteSpace=wrap;rounded=0;" vertex="1" parent="1">
          <mxGeometry x="410" y="405" width="60" height="30" as="geometry" />
        </mxCell>
      </root>
    </mxGraphModel>
  </diagram>
</mxfile>
